<mxfile host="app.diagrams.net" modified="2024-05-31T13:36:13.364Z" agent="Mozilla/5.0 (Windows NT 10.0; Win64; x64) AppleWebKit/537.36 (KHTML, like Gecko) Chrome/125.0.0.0 Safari/537.36" etag="DTlJelvVmGyfY4EoSiqp" version="24.4.13" type="device" pages="3">
  <diagram name="페이지-1" id="am1hfHXQnJHKK3dnQEB7">
    <mxGraphModel dx="1898" dy="1175" grid="0" gridSize="10" guides="1" tooltips="1" connect="1" arrows="1" fold="1" page="0" pageScale="1" pageWidth="827" pageHeight="1169" math="0" shadow="0">
      <root>
        <mxCell id="0" />
        <mxCell id="1" parent="0" />
        <mxCell id="UjpyYYoz-G7qwaQ69XlX-13" style="edgeStyle=none;curved=1;rounded=0;orthogonalLoop=1;jettySize=auto;html=1;exitX=0.5;exitY=0;exitDx=0;exitDy=0;exitPerimeter=0;entryX=0.5;entryY=0;entryDx=0;entryDy=0;fontSize=12;startSize=8;endSize=8;" edge="1" parent="1" source="UjpyYYoz-G7qwaQ69XlX-1" target="UjpyYYoz-G7qwaQ69XlX-3">
          <mxGeometry relative="1" as="geometry" />
        </mxCell>
        <mxCell id="UjpyYYoz-G7qwaQ69XlX-1" value="START" style="strokeWidth=2;html=1;shape=mxgraph.flowchart.start_1;whiteSpace=wrap;direction=east;" vertex="1" parent="1">
          <mxGeometry x="-444.5" y="-138" width="103" height="69" as="geometry" />
        </mxCell>
        <mxCell id="UjpyYYoz-G7qwaQ69XlX-18" value="" style="edgeStyle=none;curved=1;rounded=0;orthogonalLoop=1;jettySize=auto;html=1;fontSize=12;startSize=8;endSize=8;" edge="1" parent="1" source="UjpyYYoz-G7qwaQ69XlX-3" target="UjpyYYoz-G7qwaQ69XlX-4">
          <mxGeometry relative="1" as="geometry" />
        </mxCell>
        <mxCell id="UjpyYYoz-G7qwaQ69XlX-3" value="로그인 버튼" style="rounded=1;whiteSpace=wrap;html=1;absoluteArcSize=1;arcSize=14;strokeWidth=2;" vertex="1" parent="1">
          <mxGeometry x="-443" y="-5" width="100" height="70" as="geometry" />
        </mxCell>
        <mxCell id="UjpyYYoz-G7qwaQ69XlX-19" value="" style="edgeStyle=none;curved=1;rounded=0;orthogonalLoop=1;jettySize=auto;html=1;fontSize=12;startSize=8;endSize=8;" edge="1" parent="1" source="UjpyYYoz-G7qwaQ69XlX-4" target="UjpyYYoz-G7qwaQ69XlX-6">
          <mxGeometry relative="1" as="geometry" />
        </mxCell>
        <mxCell id="UjpyYYoz-G7qwaQ69XlX-4" value="USER_ID&lt;div&gt;USER_PW&lt;/div&gt;" style="shape=parallelogram;html=1;strokeWidth=2;perimeter=parallelogramPerimeter;whiteSpace=wrap;rounded=1;arcSize=12;size=0.23;" vertex="1" parent="1">
          <mxGeometry x="-284" y="-1" width="142" height="64" as="geometry" />
        </mxCell>
        <mxCell id="UjpyYYoz-G7qwaQ69XlX-21" value="" style="edgeStyle=none;curved=1;rounded=0;orthogonalLoop=1;jettySize=auto;html=1;fontSize=12;startSize=8;endSize=8;" edge="1" parent="1" source="UjpyYYoz-G7qwaQ69XlX-5" target="UjpyYYoz-G7qwaQ69XlX-7">
          <mxGeometry relative="1" as="geometry" />
        </mxCell>
        <mxCell id="UjpyYYoz-G7qwaQ69XlX-5" value="&lt;div&gt;&lt;br&gt;&lt;/div&gt;DB&lt;div&gt;USER_INFO&lt;/div&gt;" style="strokeWidth=2;html=1;shape=mxgraph.flowchart.database;whiteSpace=wrap;" vertex="1" parent="1">
          <mxGeometry x="-107" y="154" width="140" height="108" as="geometry" />
        </mxCell>
        <mxCell id="UjpyYYoz-G7qwaQ69XlX-20" value="" style="edgeStyle=none;curved=1;rounded=0;orthogonalLoop=1;jettySize=auto;html=1;fontSize=12;startSize=8;endSize=8;" edge="1" parent="1" source="UjpyYYoz-G7qwaQ69XlX-6" target="UjpyYYoz-G7qwaQ69XlX-5">
          <mxGeometry relative="1" as="geometry" />
        </mxCell>
        <mxCell id="UjpyYYoz-G7qwaQ69XlX-6" value="USER_PW&lt;div&gt;암호화&lt;/div&gt;" style="rounded=1;whiteSpace=wrap;html=1;absoluteArcSize=1;arcSize=14;strokeWidth=2;" vertex="1" parent="1">
          <mxGeometry x="-89" y="-1" width="100" height="68" as="geometry" />
        </mxCell>
        <mxCell id="UjpyYYoz-G7qwaQ69XlX-22" value="" style="edgeStyle=none;curved=1;rounded=0;orthogonalLoop=1;jettySize=auto;html=1;fontSize=12;startSize=8;endSize=8;" edge="1" parent="1" source="UjpyYYoz-G7qwaQ69XlX-7" target="UjpyYYoz-G7qwaQ69XlX-8">
          <mxGeometry relative="1" as="geometry" />
        </mxCell>
        <mxCell id="UjpyYYoz-G7qwaQ69XlX-7" value="조회 결과" style="shape=parallelogram;html=1;strokeWidth=2;perimeter=parallelogramPerimeter;whiteSpace=wrap;rounded=1;arcSize=12;size=0.23;" vertex="1" parent="1">
          <mxGeometry x="-100" y="345" width="126" height="59" as="geometry" />
        </mxCell>
        <mxCell id="UjpyYYoz-G7qwaQ69XlX-23" value="" style="edgeStyle=none;curved=1;rounded=0;orthogonalLoop=1;jettySize=auto;html=1;fontSize=12;startSize=8;endSize=8;" edge="1" parent="1" source="UjpyYYoz-G7qwaQ69XlX-8" target="UjpyYYoz-G7qwaQ69XlX-9">
          <mxGeometry relative="1" as="geometry" />
        </mxCell>
        <mxCell id="UjpyYYoz-G7qwaQ69XlX-24" value="" style="edgeStyle=none;curved=1;rounded=0;orthogonalLoop=1;jettySize=auto;html=1;fontSize=12;startSize=8;endSize=8;" edge="1" parent="1" source="UjpyYYoz-G7qwaQ69XlX-8" target="UjpyYYoz-G7qwaQ69XlX-10">
          <mxGeometry relative="1" as="geometry" />
        </mxCell>
        <mxCell id="UjpyYYoz-G7qwaQ69XlX-8" value="조회 결과&lt;div&gt;유/무&lt;/div&gt;" style="strokeWidth=2;html=1;shape=mxgraph.flowchart.decision;whiteSpace=wrap;" vertex="1" parent="1">
          <mxGeometry x="-256" y="325" width="100" height="100" as="geometry" />
        </mxCell>
        <mxCell id="UjpyYYoz-G7qwaQ69XlX-9" value="LOGIN_PAGE&lt;div&gt;이동&lt;/div&gt;" style="rounded=1;whiteSpace=wrap;html=1;absoluteArcSize=1;arcSize=14;strokeWidth=2;" vertex="1" parent="1">
          <mxGeometry x="-412" y="341" width="100" height="63" as="geometry" />
        </mxCell>
        <mxCell id="UjpyYYoz-G7qwaQ69XlX-10" value="요트다이스&lt;div&gt;페이지로 이동&lt;/div&gt;" style="rounded=1;whiteSpace=wrap;html=1;absoluteArcSize=1;arcSize=14;strokeWidth=2;" vertex="1" parent="1">
          <mxGeometry x="-256" y="486" width="100" height="62" as="geometry" />
        </mxCell>
        <mxCell id="UjpyYYoz-G7qwaQ69XlX-15" style="edgeStyle=none;curved=1;rounded=0;orthogonalLoop=1;jettySize=auto;html=1;exitX=1;exitY=0.5;exitDx=0;exitDy=0;fontSize=12;startSize=8;endSize=8;" edge="1" parent="1" source="UjpyYYoz-G7qwaQ69XlX-3" target="UjpyYYoz-G7qwaQ69XlX-3">
          <mxGeometry relative="1" as="geometry" />
        </mxCell>
        <mxCell id="UjpyYYoz-G7qwaQ69XlX-25" value="있음" style="text;strokeColor=none;fillColor=none;html=1;align=center;verticalAlign=middle;whiteSpace=wrap;rounded=0;fontSize=12;" vertex="1" parent="1">
          <mxGeometry x="-205" y="434" width="44" height="30" as="geometry" />
        </mxCell>
        <mxCell id="UjpyYYoz-G7qwaQ69XlX-27" value="없음" style="text;strokeColor=none;fillColor=none;html=1;align=center;verticalAlign=middle;whiteSpace=wrap;rounded=0;fontSize=12;" vertex="1" parent="1">
          <mxGeometry x="-302" y="341" width="44" height="30" as="geometry" />
        </mxCell>
        <mxCell id="UjpyYYoz-G7qwaQ69XlX-29" style="edgeStyle=none;curved=1;rounded=0;orthogonalLoop=1;jettySize=auto;html=1;exitX=0.5;exitY=1;exitDx=0;exitDy=0;fontSize=12;startSize=8;endSize=8;" edge="1" parent="1" source="UjpyYYoz-G7qwaQ69XlX-3" target="UjpyYYoz-G7qwaQ69XlX-3">
          <mxGeometry relative="1" as="geometry" />
        </mxCell>
      </root>
    </mxGraphModel>
  </diagram>
  <diagram id="-L_igy7T78tS0uvEnurY" name="페이지-2">
    <mxGraphModel dx="1754" dy="1575" grid="0" gridSize="10" guides="1" tooltips="1" connect="1" arrows="1" fold="1" page="0" pageScale="1" pageWidth="827" pageHeight="1169" math="0" shadow="0">
      <root>
        <mxCell id="0" />
        <mxCell id="1" parent="0" />
        <mxCell id="fmtfh-tVbyq4QNqDnQDx-17" value="" style="edgeStyle=none;curved=1;rounded=0;orthogonalLoop=1;jettySize=auto;html=1;fontSize=12;startSize=8;endSize=8;" parent="1" source="fmtfh-tVbyq4QNqDnQDx-2" target="fmtfh-tVbyq4QNqDnQDx-3" edge="1">
          <mxGeometry relative="1" as="geometry" />
        </mxCell>
        <mxCell id="fmtfh-tVbyq4QNqDnQDx-2" value="START" style="strokeWidth=2;html=1;shape=mxgraph.flowchart.start_1;whiteSpace=wrap;" parent="1" vertex="1">
          <mxGeometry x="-363.5" y="-132.75" width="131" height="85" as="geometry" />
        </mxCell>
        <mxCell id="fmtfh-tVbyq4QNqDnQDx-18" value="" style="edgeStyle=none;curved=1;rounded=0;orthogonalLoop=1;jettySize=auto;html=1;fontSize=12;startSize=8;endSize=8;" parent="1" source="fmtfh-tVbyq4QNqDnQDx-3" target="fmtfh-tVbyq4QNqDnQDx-4" edge="1">
          <mxGeometry relative="1" as="geometry" />
        </mxCell>
        <mxCell id="fmtfh-tVbyq4QNqDnQDx-3" value="양식 정보" style="rounded=1;whiteSpace=wrap;html=1;absoluteArcSize=1;arcSize=10;strokeWidth=2;" parent="1" vertex="1">
          <mxGeometry x="-156.25" y="-125.25" width="130" height="70" as="geometry" />
        </mxCell>
        <mxCell id="fmtfh-tVbyq4QNqDnQDx-25" value="" style="edgeStyle=none;curved=1;rounded=0;orthogonalLoop=1;jettySize=auto;html=1;fontSize=12;startSize=8;endSize=8;" parent="1" source="fmtfh-tVbyq4QNqDnQDx-4" target="fmtfh-tVbyq4QNqDnQDx-5" edge="1">
          <mxGeometry relative="1" as="geometry" />
        </mxCell>
        <mxCell id="fmtfh-tVbyq4QNqDnQDx-4" value="회원 가입&lt;div&gt;버튼&lt;/div&gt;" style="rounded=1;whiteSpace=wrap;html=1;absoluteArcSize=1;arcSize=14;strokeWidth=2;" parent="1" vertex="1">
          <mxGeometry x="45" y="-124" width="130" height="67.5" as="geometry" />
        </mxCell>
        <mxCell id="fmtfh-tVbyq4QNqDnQDx-26" value="" style="edgeStyle=none;curved=1;rounded=0;orthogonalLoop=1;jettySize=auto;html=1;fontSize=12;startSize=8;endSize=8;" parent="1" source="fmtfh-tVbyq4QNqDnQDx-5" target="fmtfh-tVbyq4QNqDnQDx-6" edge="1">
          <mxGeometry relative="1" as="geometry" />
        </mxCell>
        <mxCell id="fmtfh-tVbyq4QNqDnQDx-5" value="ID 중복&amp;nbsp;&lt;span style=&quot;background-color: initial;&quot;&gt;체크&lt;/span&gt;&lt;div&gt;&lt;span style=&quot;background-color: initial;&quot;&gt;여부&lt;/span&gt;&lt;/div&gt;" style="strokeWidth=2;html=1;shape=mxgraph.flowchart.decision;whiteSpace=wrap;" parent="1" vertex="1">
          <mxGeometry x="55" y="-16" width="110" height="112" as="geometry" />
        </mxCell>
        <mxCell id="fmtfh-tVbyq4QNqDnQDx-29" style="edgeStyle=none;curved=1;rounded=0;orthogonalLoop=1;jettySize=auto;html=1;fontSize=12;startSize=8;endSize=8;" parent="1" source="fmtfh-tVbyq4QNqDnQDx-6" target="fmtfh-tVbyq4QNqDnQDx-28" edge="1">
          <mxGeometry relative="1" as="geometry" />
        </mxCell>
        <mxCell id="fmtfh-tVbyq4QNqDnQDx-6" value="ID 중복 여부" style="strokeWidth=2;html=1;shape=mxgraph.flowchart.decision;whiteSpace=wrap;" parent="1" vertex="1">
          <mxGeometry x="51.5" y="140" width="123.5" height="116" as="geometry" />
        </mxCell>
        <mxCell id="fmtfh-tVbyq4QNqDnQDx-27" value="" style="edgeStyle=none;curved=1;rounded=0;orthogonalLoop=1;jettySize=auto;html=1;fontSize=12;startSize=8;endSize=8;" parent="1" source="fmtfh-tVbyq4QNqDnQDx-7" target="fmtfh-tVbyq4QNqDnQDx-8" edge="1">
          <mxGeometry relative="1" as="geometry" />
        </mxCell>
        <mxCell id="fmtfh-tVbyq4QNqDnQDx-7" value="USER_ID&lt;div&gt;USER_PW&lt;/div&gt;&lt;div&gt;USER_NAME&lt;/div&gt;&lt;div&gt;USER_QUESTION&lt;/div&gt;&lt;div&gt;USER_ANSWER&lt;/div&gt;" style="shape=parallelogram;html=1;strokeWidth=2;perimeter=parallelogramPerimeter;whiteSpace=wrap;rounded=1;arcSize=12;size=0.23;" parent="1" vertex="1">
          <mxGeometry x="233" y="320.5" width="180" height="92" as="geometry" />
        </mxCell>
        <mxCell id="fmtfh-tVbyq4QNqDnQDx-31" value="" style="edgeStyle=none;curved=1;rounded=0;orthogonalLoop=1;jettySize=auto;html=1;fontSize=12;startSize=8;endSize=8;" parent="1" source="fmtfh-tVbyq4QNqDnQDx-8" target="fmtfh-tVbyq4QNqDnQDx-11" edge="1">
          <mxGeometry relative="1" as="geometry" />
        </mxCell>
        <mxCell id="fmtfh-tVbyq4QNqDnQDx-8" value="&lt;div&gt;&lt;br&gt;&lt;/div&gt;DB&lt;div&gt;USER_INFO&lt;/div&gt;" style="strokeWidth=2;html=1;shape=mxgraph.flowchart.database;whiteSpace=wrap;" parent="1" vertex="1">
          <mxGeometry x="252" y="465" width="142" height="108" as="geometry" />
        </mxCell>
        <mxCell id="fmtfh-tVbyq4QNqDnQDx-32" value="" style="edgeStyle=none;curved=1;rounded=0;orthogonalLoop=1;jettySize=auto;html=1;fontSize=12;startSize=8;endSize=8;" parent="1" source="fmtfh-tVbyq4QNqDnQDx-11" target="fmtfh-tVbyq4QNqDnQDx-12" edge="1">
          <mxGeometry relative="1" as="geometry" />
        </mxCell>
        <mxCell id="fmtfh-tVbyq4QNqDnQDx-11" value="회원 가입 성공&lt;div&gt;MSG 출력&lt;/div&gt;" style="rounded=1;whiteSpace=wrap;html=1;absoluteArcSize=1;arcSize=14;strokeWidth=2;" parent="1" vertex="1">
          <mxGeometry x="463" y="482.5" width="139" height="73" as="geometry" />
        </mxCell>
        <mxCell id="fmtfh-tVbyq4QNqDnQDx-12" value="LOGIN_PAGE&lt;div&gt;이동&lt;/div&gt;" style="rounded=1;whiteSpace=wrap;html=1;absoluteArcSize=1;arcSize=14;strokeWidth=2;" parent="1" vertex="1">
          <mxGeometry x="466" y="629" width="136" height="60" as="geometry" />
        </mxCell>
        <mxCell id="fmtfh-tVbyq4QNqDnQDx-21" value="" style="edgeStyle=none;curved=1;rounded=0;orthogonalLoop=1;jettySize=auto;html=1;fontSize=12;startSize=8;endSize=8;" parent="1" source="fmtfh-tVbyq4QNqDnQDx-13" target="fmtfh-tVbyq4QNqDnQDx-15" edge="1">
          <mxGeometry relative="1" as="geometry" />
        </mxCell>
        <mxCell id="fmtfh-tVbyq4QNqDnQDx-13" value="ID 중복 체크&lt;div&gt;버튼&lt;/div&gt;" style="rounded=1;whiteSpace=wrap;html=1;absoluteArcSize=1;arcSize=14;strokeWidth=2;" parent="1" vertex="1">
          <mxGeometry x="48" y="-251" width="127" height="73" as="geometry" />
        </mxCell>
        <mxCell id="fmtfh-tVbyq4QNqDnQDx-22" value="" style="edgeStyle=none;curved=1;rounded=0;orthogonalLoop=1;jettySize=auto;html=1;fontSize=12;startSize=8;endSize=8;" parent="1" source="fmtfh-tVbyq4QNqDnQDx-15" target="fmtfh-tVbyq4QNqDnQDx-16" edge="1">
          <mxGeometry relative="1" as="geometry" />
        </mxCell>
        <mxCell id="fmtfh-tVbyq4QNqDnQDx-15" value="USER_ID" style="shape=parallelogram;html=1;strokeWidth=2;perimeter=parallelogramPerimeter;whiteSpace=wrap;rounded=1;arcSize=12;size=0.23;" parent="1" vertex="1">
          <mxGeometry x="252" y="-260.5" width="180" height="92" as="geometry" />
        </mxCell>
        <mxCell id="fmtfh-tVbyq4QNqDnQDx-16" value="&lt;div&gt;&lt;br&gt;&lt;/div&gt;DB&lt;div&gt;USER_INFO&lt;/div&gt;" style="strokeWidth=2;html=1;shape=mxgraph.flowchart.database;whiteSpace=wrap;" parent="1" vertex="1">
          <mxGeometry x="271" y="-419" width="142" height="108" as="geometry" />
        </mxCell>
        <mxCell id="fmtfh-tVbyq4QNqDnQDx-20" value="" style="edgeStyle=elbowEdgeStyle;elbow=horizontal;endArrow=classic;html=1;curved=0;rounded=0;endSize=8;startSize=8;fontSize=12;exitX=0.994;exitY=0.504;exitDx=0;exitDy=0;exitPerimeter=0;" parent="1" source="fmtfh-tVbyq4QNqDnQDx-3" edge="1">
          <mxGeometry width="50" height="50" relative="1" as="geometry">
            <mxPoint x="-7" y="124" as="sourcePoint" />
            <mxPoint x="47" y="-211" as="targetPoint" />
            <Array as="points" />
          </mxGeometry>
        </mxCell>
        <mxCell id="fmtfh-tVbyq4QNqDnQDx-24" value="" style="edgeStyle=elbowEdgeStyle;elbow=horizontal;endArrow=classic;html=1;curved=0;rounded=0;endSize=8;startSize=8;fontSize=12;entryX=0.5;entryY=0;entryDx=0;entryDy=0;exitX=0;exitY=0.5;exitDx=0;exitDy=0;exitPerimeter=0;" parent="1" source="fmtfh-tVbyq4QNqDnQDx-16" target="fmtfh-tVbyq4QNqDnQDx-3" edge="1">
          <mxGeometry width="50" height="50" relative="1" as="geometry">
            <mxPoint x="32" y="-113" as="sourcePoint" />
            <mxPoint x="82" y="-163" as="targetPoint" />
            <Array as="points">
              <mxPoint x="-91" y="-268" />
            </Array>
          </mxGeometry>
        </mxCell>
        <mxCell id="fmtfh-tVbyq4QNqDnQDx-30" value="" style="edgeStyle=none;curved=1;rounded=0;orthogonalLoop=1;jettySize=auto;html=1;fontSize=12;startSize=8;endSize=8;" parent="1" source="fmtfh-tVbyq4QNqDnQDx-28" target="fmtfh-tVbyq4QNqDnQDx-7" edge="1">
          <mxGeometry relative="1" as="geometry" />
        </mxCell>
        <mxCell id="fmtfh-tVbyq4QNqDnQDx-28" value="모든 데이터&lt;div&gt;입력&amp;nbsp;&lt;span style=&quot;background-color: initial;&quot;&gt;여부&lt;/span&gt;&lt;/div&gt;" style="strokeWidth=2;html=1;shape=mxgraph.flowchart.decision;whiteSpace=wrap;" parent="1" vertex="1">
          <mxGeometry x="51.5" y="308.5" width="123.5" height="116" as="geometry" />
        </mxCell>
        <mxCell id="fmtfh-tVbyq4QNqDnQDx-33" value="" style="edgeStyle=elbowEdgeStyle;elbow=horizontal;endArrow=classic;html=1;curved=0;rounded=0;endSize=8;startSize=8;fontSize=12;exitX=0;exitY=0.5;exitDx=0;exitDy=0;exitPerimeter=0;entryX=0.5;entryY=1;entryDx=0;entryDy=0;" parent="1" source="fmtfh-tVbyq4QNqDnQDx-5" target="fmtfh-tVbyq4QNqDnQDx-3" edge="1">
          <mxGeometry width="50" height="50" relative="1" as="geometry">
            <mxPoint x="197" y="219" as="sourcePoint" />
            <mxPoint x="247" y="169" as="targetPoint" />
            <Array as="points">
              <mxPoint x="-91" y="86" />
            </Array>
          </mxGeometry>
        </mxCell>
        <mxCell id="fmtfh-tVbyq4QNqDnQDx-34" value="" style="edgeStyle=elbowEdgeStyle;elbow=horizontal;endArrow=classic;html=1;curved=0;rounded=0;endSize=8;startSize=8;fontSize=12;exitX=0;exitY=0.5;exitDx=0;exitDy=0;exitPerimeter=0;entryX=0.5;entryY=1;entryDx=0;entryDy=0;" parent="1" source="fmtfh-tVbyq4QNqDnQDx-6" target="fmtfh-tVbyq4QNqDnQDx-3" edge="1">
          <mxGeometry width="50" height="50" relative="1" as="geometry">
            <mxPoint x="197" y="219" as="sourcePoint" />
            <mxPoint x="247" y="169" as="targetPoint" />
            <Array as="points">
              <mxPoint x="-91" y="153" />
            </Array>
          </mxGeometry>
        </mxCell>
        <mxCell id="fmtfh-tVbyq4QNqDnQDx-35" value="" style="edgeStyle=elbowEdgeStyle;elbow=horizontal;endArrow=classic;html=1;curved=0;rounded=0;endSize=8;startSize=8;fontSize=12;exitX=0;exitY=0.5;exitDx=0;exitDy=0;exitPerimeter=0;entryX=0.5;entryY=1;entryDx=0;entryDy=0;" parent="1" source="fmtfh-tVbyq4QNqDnQDx-28" target="fmtfh-tVbyq4QNqDnQDx-3" edge="1">
          <mxGeometry width="50" height="50" relative="1" as="geometry">
            <mxPoint x="197" y="219" as="sourcePoint" />
            <mxPoint x="247" y="169" as="targetPoint" />
            <Array as="points">
              <mxPoint x="-91" y="307" />
            </Array>
          </mxGeometry>
        </mxCell>
        <mxCell id="fmtfh-tVbyq4QNqDnQDx-37" value="Y" style="text;strokeColor=none;fillColor=none;html=1;align=center;verticalAlign=middle;whiteSpace=wrap;rounded=0;fontSize=16;" parent="1" vertex="1">
          <mxGeometry x="96" y="87" width="60" height="30" as="geometry" />
        </mxCell>
        <mxCell id="fmtfh-tVbyq4QNqDnQDx-38" value="N" style="text;strokeColor=none;fillColor=none;html=1;align=center;verticalAlign=middle;whiteSpace=wrap;rounded=0;fontSize=16;" parent="1" vertex="1">
          <mxGeometry x="6" y="11" width="60" height="30" as="geometry" />
        </mxCell>
        <mxCell id="fmtfh-tVbyq4QNqDnQDx-39" value="N" style="text;strokeColor=none;fillColor=none;html=1;align=center;verticalAlign=middle;whiteSpace=wrap;rounded=0;fontSize=16;" parent="1" vertex="1">
          <mxGeometry x="96" y="256" width="60" height="30" as="geometry" />
        </mxCell>
        <mxCell id="fmtfh-tVbyq4QNqDnQDx-40" value="Y" style="text;strokeColor=none;fillColor=none;html=1;align=center;verticalAlign=middle;whiteSpace=wrap;rounded=0;fontSize=16;" parent="1" vertex="1">
          <mxGeometry x="156" y="335" width="60" height="30" as="geometry" />
        </mxCell>
        <mxCell id="fmtfh-tVbyq4QNqDnQDx-41" value="Y" style="text;strokeColor=none;fillColor=none;html=1;align=center;verticalAlign=middle;whiteSpace=wrap;rounded=0;fontSize=16;" parent="1" vertex="1">
          <mxGeometry x="6" y="175" width="60" height="30" as="geometry" />
        </mxCell>
        <mxCell id="fmtfh-tVbyq4QNqDnQDx-43" value="N" style="text;strokeColor=none;fillColor=none;html=1;align=center;verticalAlign=middle;whiteSpace=wrap;rounded=0;fontSize=16;" parent="1" vertex="1">
          <mxGeometry x="6" y="335" width="60" height="30" as="geometry" />
        </mxCell>
      </root>
    </mxGraphModel>
  </diagram>
  <diagram id="ANpEktoBzTf3GTNAI4h6" name="페이지-3">
    <mxGraphModel dx="1754" dy="1575" grid="0" gridSize="10" guides="1" tooltips="1" connect="1" arrows="1" fold="1" page="0" pageScale="1" pageWidth="827" pageHeight="1169" math="0" shadow="0">
      <root>
        <mxCell id="0" />
        <mxCell id="1" parent="0" />
        <mxCell id="vQx2TOWIWekJc0RoDal7-19" value="" style="edgeStyle=none;curved=1;rounded=0;orthogonalLoop=1;jettySize=auto;html=1;fontSize=12;startSize=8;endSize=8;" edge="1" parent="1" source="omyaRqT8pyxE_5YGOcII-1" target="vQx2TOWIWekJc0RoDal7-2">
          <mxGeometry relative="1" as="geometry" />
        </mxCell>
        <mxCell id="omyaRqT8pyxE_5YGOcII-1" value="start" style="strokeWidth=2;html=1;shape=mxgraph.flowchart.start_1;whiteSpace=wrap;" vertex="1" parent="1">
          <mxGeometry x="-354" y="-667" width="100" height="60" as="geometry" />
        </mxCell>
        <mxCell id="vQx2TOWIWekJc0RoDal7-20" value="" style="edgeStyle=none;curved=1;rounded=0;orthogonalLoop=1;jettySize=auto;html=1;fontSize=12;startSize=8;endSize=8;" edge="1" parent="1" source="vQx2TOWIWekJc0RoDal7-1" target="vQx2TOWIWekJc0RoDal7-3">
          <mxGeometry relative="1" as="geometry" />
        </mxCell>
        <mxCell id="vQx2TOWIWekJc0RoDal7-1" value="player=1" style="rounded=1;whiteSpace=wrap;html=1;absoluteArcSize=1;arcSize=14;strokeWidth=2;" vertex="1" parent="1">
          <mxGeometry x="-350" y="-560" width="100" height="43" as="geometry" />
        </mxCell>
        <mxCell id="vQx2TOWIWekJc0RoDal7-2" value="count=0" style="rounded=1;whiteSpace=wrap;html=1;absoluteArcSize=1;arcSize=14;strokeWidth=2;" vertex="1" parent="1">
          <mxGeometry x="-350" y="-480" width="100" height="43" as="geometry" />
        </mxCell>
        <mxCell id="vQx2TOWIWekJc0RoDal7-21" value="" style="edgeStyle=none;curved=1;rounded=0;orthogonalLoop=1;jettySize=auto;html=1;fontSize=12;startSize=8;endSize=8;" edge="1" parent="1" source="vQx2TOWIWekJc0RoDal7-3" target="vQx2TOWIWekJc0RoDal7-5">
          <mxGeometry relative="1" as="geometry" />
        </mxCell>
        <mxCell id="vQx2TOWIWekJc0RoDal7-3" value="주사위 굴림" style="rounded=1;whiteSpace=wrap;html=1;absoluteArcSize=1;arcSize=14;strokeWidth=2;" vertex="1" parent="1">
          <mxGeometry x="-350" y="-396" width="100" height="43" as="geometry" />
        </mxCell>
        <mxCell id="vQx2TOWIWekJc0RoDal7-4" value="count++" style="rounded=1;whiteSpace=wrap;html=1;absoluteArcSize=1;arcSize=14;strokeWidth=2;" vertex="1" parent="1">
          <mxGeometry x="-350" y="-315" width="100" height="43" as="geometry" />
        </mxCell>
        <mxCell id="vQx2TOWIWekJc0RoDal7-23" style="edgeStyle=none;curved=1;rounded=0;orthogonalLoop=1;jettySize=auto;html=1;exitX=0.5;exitY=1;exitDx=0;exitDy=0;exitPerimeter=0;fontSize=12;startSize=8;endSize=8;" edge="1" parent="1" source="vQx2TOWIWekJc0RoDal7-5" target="vQx2TOWIWekJc0RoDal7-8">
          <mxGeometry relative="1" as="geometry" />
        </mxCell>
        <mxCell id="vQx2TOWIWekJc0RoDal7-27" value="" style="edgeStyle=none;curved=1;rounded=0;orthogonalLoop=1;jettySize=auto;html=1;fontSize=12;startSize=8;endSize=8;" edge="1" parent="1" source="vQx2TOWIWekJc0RoDal7-5" target="vQx2TOWIWekJc0RoDal7-6">
          <mxGeometry relative="1" as="geometry" />
        </mxCell>
        <mxCell id="vQx2TOWIWekJc0RoDal7-5" value="count &amp;lt; 3" style="strokeWidth=2;html=1;shape=mxgraph.flowchart.decision;whiteSpace=wrap;" vertex="1" parent="1">
          <mxGeometry x="-347.5" y="-208" width="87" height="76" as="geometry" />
        </mxCell>
        <mxCell id="vQx2TOWIWekJc0RoDal7-6" value="다시 굴릴&lt;div&gt;주사위&lt;/div&gt;" style="strokeWidth=2;html=1;shape=mxgraph.flowchart.decision;whiteSpace=wrap;" vertex="1" parent="1">
          <mxGeometry x="-116" y="-208" width="87" height="76" as="geometry" />
        </mxCell>
        <mxCell id="vQx2TOWIWekJc0RoDal7-31" value="" style="edgeStyle=none;curved=1;rounded=0;orthogonalLoop=1;jettySize=auto;html=1;fontSize=12;startSize=8;endSize=8;" edge="1" parent="1" source="vQx2TOWIWekJc0RoDal7-8" target="vQx2TOWIWekJc0RoDal7-9">
          <mxGeometry relative="1" as="geometry" />
        </mxCell>
        <mxCell id="vQx2TOWIWekJc0RoDal7-8" value="족보에 점수 할당" style="rounded=1;whiteSpace=wrap;html=1;absoluteArcSize=1;arcSize=14;strokeWidth=2;" vertex="1" parent="1">
          <mxGeometry x="-354" y="-53.5" width="100" height="43" as="geometry" />
        </mxCell>
        <mxCell id="vQx2TOWIWekJc0RoDal7-28" value="" style="edgeStyle=none;curved=1;rounded=0;orthogonalLoop=1;jettySize=auto;html=1;fontSize=12;startSize=8;endSize=8;" edge="1" parent="1" source="vQx2TOWIWekJc0RoDal7-9" target="vQx2TOWIWekJc0RoDal7-12">
          <mxGeometry relative="1" as="geometry" />
        </mxCell>
        <mxCell id="vQx2TOWIWekJc0RoDal7-9" value="player1&lt;div&gt;player2&lt;/div&gt;&lt;div&gt;족보&lt;/div&gt;" style="strokeWidth=2;html=1;shape=mxgraph.flowchart.decision;whiteSpace=wrap;" vertex="1" parent="1">
          <mxGeometry x="-116" y="-70" width="87" height="76" as="geometry" />
        </mxCell>
        <mxCell id="vQx2TOWIWekJc0RoDal7-29" value="" style="edgeStyle=none;curved=1;rounded=0;orthogonalLoop=1;jettySize=auto;html=1;fontSize=12;startSize=8;endSize=8;" edge="1" parent="1" source="vQx2TOWIWekJc0RoDal7-10" target="vQx2TOWIWekJc0RoDal7-11">
          <mxGeometry relative="1" as="geometry" />
        </mxCell>
        <mxCell id="vQx2TOWIWekJc0RoDal7-30" value="" style="edgeStyle=none;curved=1;rounded=0;orthogonalLoop=1;jettySize=auto;html=1;fontSize=12;startSize=8;endSize=8;" edge="1" parent="1" source="vQx2TOWIWekJc0RoDal7-10" target="vQx2TOWIWekJc0RoDal7-14">
          <mxGeometry relative="1" as="geometry" />
        </mxCell>
        <mxCell id="vQx2TOWIWekJc0RoDal7-10" value="점수 비교" style="strokeWidth=2;html=1;shape=mxgraph.flowchart.decision;whiteSpace=wrap;" vertex="1" parent="1">
          <mxGeometry x="-116" y="46.5" width="87" height="76" as="geometry" />
        </mxCell>
        <mxCell id="vQx2TOWIWekJc0RoDal7-11" value="player1 승리" style="rounded=1;whiteSpace=wrap;html=1;absoluteArcSize=1;arcSize=14;strokeWidth=2;" vertex="1" parent="1">
          <mxGeometry x="-305" y="63" width="100" height="43" as="geometry" />
        </mxCell>
        <mxCell id="vQx2TOWIWekJc0RoDal7-12" value="무승부" style="rounded=1;whiteSpace=wrap;html=1;absoluteArcSize=1;arcSize=14;strokeWidth=2;" vertex="1" parent="1">
          <mxGeometry x="-122.5" y="185" width="100" height="43" as="geometry" />
        </mxCell>
        <mxCell id="vQx2TOWIWekJc0RoDal7-14" value="player2 승리" style="rounded=1;whiteSpace=wrap;html=1;absoluteArcSize=1;arcSize=14;strokeWidth=2;" vertex="1" parent="1">
          <mxGeometry x="61" y="63" width="100" height="43" as="geometry" />
        </mxCell>
        <mxCell id="vQx2TOWIWekJc0RoDal7-16" value="player" style="strokeWidth=2;html=1;shape=mxgraph.flowchart.decision;whiteSpace=wrap;" vertex="1" parent="1">
          <mxGeometry x="30.5" y="-453.5" width="87" height="76" as="geometry" />
        </mxCell>
        <mxCell id="vQx2TOWIWekJc0RoDal7-17" value="player=1" style="rounded=1;whiteSpace=wrap;html=1;absoluteArcSize=1;arcSize=14;strokeWidth=2;" vertex="1" parent="1">
          <mxGeometry x="-125" y="-517" width="100" height="43" as="geometry" />
        </mxCell>
        <mxCell id="vQx2TOWIWekJc0RoDal7-18" value="player=2" style="rounded=1;whiteSpace=wrap;html=1;absoluteArcSize=1;arcSize=14;strokeWidth=2;" vertex="1" parent="1">
          <mxGeometry x="-125" y="-437" width="100" height="43" as="geometry" />
        </mxCell>
        <mxCell id="vQx2TOWIWekJc0RoDal7-34" value="" style="edgeStyle=elbowEdgeStyle;elbow=vertical;endArrow=classic;html=1;curved=0;rounded=0;endSize=8;startSize=8;fontSize=12;exitX=0.5;exitY=1;exitDx=0;exitDy=0;exitPerimeter=0;entryX=0.5;entryY=0;entryDx=0;entryDy=0;" edge="1" parent="1" source="vQx2TOWIWekJc0RoDal7-6" target="vQx2TOWIWekJc0RoDal7-8">
          <mxGeometry width="50" height="50" relative="1" as="geometry">
            <mxPoint x="129" y="-33" as="sourcePoint" />
            <mxPoint x="179" y="-83" as="targetPoint" />
            <Array as="points">
              <mxPoint x="-188" y="-97" />
            </Array>
          </mxGeometry>
        </mxCell>
        <mxCell id="vQx2TOWIWekJc0RoDal7-37" value="" style="edgeStyle=elbowEdgeStyle;elbow=vertical;endArrow=classic;html=1;curved=0;rounded=0;endSize=8;startSize=8;fontSize=12;exitX=1;exitY=0.5;exitDx=0;exitDy=0;exitPerimeter=0;entryX=0.5;entryY=1;entryDx=0;entryDy=0;entryPerimeter=0;" edge="1" parent="1" source="vQx2TOWIWekJc0RoDal7-9" target="vQx2TOWIWekJc0RoDal7-16">
          <mxGeometry width="50" height="50" relative="1" as="geometry">
            <mxPoint x="109" y="-168" as="sourcePoint" />
            <mxPoint x="159" y="-218" as="targetPoint" />
            <Array as="points">
              <mxPoint x="69" y="-32" />
            </Array>
          </mxGeometry>
        </mxCell>
        <mxCell id="vQx2TOWIWekJc0RoDal7-38" value="" style="edgeStyle=elbowEdgeStyle;elbow=horizontal;endArrow=classic;html=1;curved=0;rounded=0;endSize=8;startSize=8;fontSize=12;exitX=0;exitY=0.5;exitDx=0;exitDy=0;exitPerimeter=0;entryX=1;entryY=0.5;entryDx=0;entryDy=0;" edge="1" parent="1" source="vQx2TOWIWekJc0RoDal7-16" target="vQx2TOWIWekJc0RoDal7-18">
          <mxGeometry width="50" height="50" relative="1" as="geometry">
            <mxPoint x="109" y="-168" as="sourcePoint" />
            <mxPoint x="159" y="-218" as="targetPoint" />
          </mxGeometry>
        </mxCell>
        <mxCell id="vQx2TOWIWekJc0RoDal7-40" value="" style="edgeStyle=elbowEdgeStyle;elbow=horizontal;endArrow=classic;html=1;curved=0;rounded=0;endSize=8;startSize=8;fontSize=12;exitX=0.5;exitY=0;exitDx=0;exitDy=0;exitPerimeter=0;entryX=1;entryY=0.5;entryDx=0;entryDy=0;" edge="1" parent="1" source="vQx2TOWIWekJc0RoDal7-16" target="vQx2TOWIWekJc0RoDal7-17">
          <mxGeometry width="50" height="50" relative="1" as="geometry">
            <mxPoint x="109" y="-168" as="sourcePoint" />
            <mxPoint x="159" y="-218" as="targetPoint" />
            <Array as="points">
              <mxPoint x="74" y="-504" />
            </Array>
          </mxGeometry>
        </mxCell>
        <mxCell id="vQx2TOWIWekJc0RoDal7-41" value="" style="edgeStyle=elbowEdgeStyle;elbow=horizontal;endArrow=classic;html=1;curved=0;rounded=0;endSize=8;startSize=8;fontSize=12;exitX=0;exitY=0.5;exitDx=0;exitDy=0;entryX=1;entryY=0.5;entryDx=0;entryDy=0;" edge="1" parent="1" source="vQx2TOWIWekJc0RoDal7-17" target="vQx2TOWIWekJc0RoDal7-2">
          <mxGeometry width="50" height="50" relative="1" as="geometry">
            <mxPoint x="100" y="-218" as="sourcePoint" />
            <mxPoint x="150" y="-268" as="targetPoint" />
          </mxGeometry>
        </mxCell>
        <mxCell id="vQx2TOWIWekJc0RoDal7-43" value="" style="edgeStyle=elbowEdgeStyle;elbow=horizontal;endArrow=classic;html=1;curved=0;rounded=0;endSize=8;startSize=8;fontSize=12;exitX=0;exitY=0.5;exitDx=0;exitDy=0;entryX=1;entryY=0.5;entryDx=0;entryDy=0;" edge="1" parent="1" source="vQx2TOWIWekJc0RoDal7-18" target="vQx2TOWIWekJc0RoDal7-2">
          <mxGeometry width="50" height="50" relative="1" as="geometry">
            <mxPoint x="100" y="-218" as="sourcePoint" />
            <mxPoint x="150" y="-268" as="targetPoint" />
          </mxGeometry>
        </mxCell>
        <mxCell id="vQx2TOWIWekJc0RoDal7-44" value="" style="edgeStyle=elbowEdgeStyle;elbow=horizontal;endArrow=classic;html=1;curved=0;rounded=0;endSize=8;startSize=8;fontSize=12;exitX=0.5;exitY=0;exitDx=0;exitDy=0;exitPerimeter=0;entryX=1;entryY=0.5;entryDx=0;entryDy=0;" edge="1" parent="1" source="vQx2TOWIWekJc0RoDal7-6" target="vQx2TOWIWekJc0RoDal7-3">
          <mxGeometry width="50" height="50" relative="1" as="geometry">
            <mxPoint x="132" y="-208" as="sourcePoint" />
            <mxPoint x="182" y="-258" as="targetPoint" />
            <Array as="points">
              <mxPoint x="-72" y="-297" />
            </Array>
          </mxGeometry>
        </mxCell>
        <mxCell id="vQx2TOWIWekJc0RoDal7-48" value="없음" style="text;strokeColor=none;fillColor=none;html=1;align=center;verticalAlign=middle;whiteSpace=wrap;rounded=0;fontSize=16;" vertex="1" parent="1">
          <mxGeometry x="-80.75" y="-138" width="60" height="30" as="geometry" />
        </mxCell>
        <mxCell id="vQx2TOWIWekJc0RoDal7-49" value="Y" style="text;strokeColor=none;fillColor=none;html=1;align=center;verticalAlign=middle;whiteSpace=wrap;rounded=0;fontSize=16;" vertex="1" parent="1">
          <mxGeometry x="-89" y="-1" width="60" height="30" as="geometry" />
        </mxCell>
        <mxCell id="vQx2TOWIWekJc0RoDal7-50" value="N" style="text;strokeColor=none;fillColor=none;html=1;align=center;verticalAlign=middle;whiteSpace=wrap;rounded=0;fontSize=16;" vertex="1" parent="1">
          <mxGeometry x="-50" y="-59" width="60" height="30" as="geometry" />
        </mxCell>
        <mxCell id="vQx2TOWIWekJc0RoDal7-51" value="1" style="text;strokeColor=none;fillColor=none;html=1;align=center;verticalAlign=middle;whiteSpace=wrap;rounded=0;fontSize=16;" vertex="1" parent="1">
          <mxGeometry x="-5" y="-445" width="60" height="30" as="geometry" />
        </mxCell>
        <mxCell id="vQx2TOWIWekJc0RoDal7-53" value="2" style="text;strokeColor=none;fillColor=none;html=1;align=center;verticalAlign=middle;whiteSpace=wrap;rounded=0;fontSize=16;" vertex="1" parent="1">
          <mxGeometry x="57.5" y="-480" width="60" height="30" as="geometry" />
        </mxCell>
        <mxCell id="vQx2TOWIWekJc0RoDal7-54" value="T" style="text;strokeColor=none;fillColor=none;html=1;align=center;verticalAlign=middle;whiteSpace=wrap;rounded=0;fontSize=16;" vertex="1" parent="1">
          <mxGeometry x="-281" y="-198" width="60" height="30" as="geometry" />
        </mxCell>
        <mxCell id="vQx2TOWIWekJc0RoDal7-56" value="F" style="text;strokeColor=none;fillColor=none;html=1;align=center;verticalAlign=middle;whiteSpace=wrap;rounded=0;fontSize=16;" vertex="1" parent="1">
          <mxGeometry x="-323" y="-138" width="60" height="30" as="geometry" />
        </mxCell>
        <mxCell id="vQx2TOWIWekJc0RoDal7-57" value="있음" style="text;strokeColor=none;fillColor=none;html=1;align=center;verticalAlign=middle;whiteSpace=wrap;rounded=0;fontSize=16;" vertex="1" parent="1">
          <mxGeometry x="-80.75" y="-234" width="60" height="30" as="geometry" />
        </mxCell>
        <mxCell id="vQx2TOWIWekJc0RoDal7-59" value="p1 &amp;gt;&amp;nbsp;&lt;span style=&quot;background-color: initial;&quot;&gt;p2&lt;/span&gt;" style="text;strokeColor=none;fillColor=none;html=1;align=center;verticalAlign=middle;whiteSpace=wrap;rounded=0;fontSize=16;" vertex="1" parent="1">
          <mxGeometry x="-176" y="52" width="60" height="30" as="geometry" />
        </mxCell>
        <mxCell id="vQx2TOWIWekJc0RoDal7-60" value="p1 &amp;lt;&lt;span style=&quot;color: rgba(0, 0, 0, 0); font-family: monospace; font-size: 0px; text-align: start; text-wrap: nowrap;&quot;&gt;%3CmxGraphModel%3E%3Croot%3E%3CmxCell%20id%3D%220%22%2F%3E%3CmxCell%20id%3D%221%22%20parent%3D%220%22%2F%3E%3CmxCell%20id%3D%222%22%20value%3D%22p1%20%26amp%3Bgt%3B%26amp%3Bnbsp%3B%26lt%3Bspan%20style%3D%26quot%3Bbackground-color%3A%20initial%3B%26quot%3B%26gt%3Bp2%26lt%3B%2Fspan%26gt%3B%22%20style%3D%22text%3BstrokeColor%3Dnone%3BfillColor%3Dnone%3Bhtml%3D1%3Balign%3Dcenter%3BverticalAlign%3Dmiddle%3BwhiteSpace%3Dwrap%3Brounded%3D0%3BfontSize%3D16%3B%22%20vertex%3D%221%22%20parent%3D%221%22%3E%3CmxGeometry%20x%3D%22-182.5%22%20y%3D%2252%22%20width%3D%2260%22%20height%3D%2230%22%20as%3D%22geometry%22%2F%3E%3C%2FmxCell%3E%3C%2Froot%3E%3C%2FmxGraphModel%3E&lt;/span&gt;&amp;nbsp;&lt;span style=&quot;background-color: initial;&quot;&gt;p2&lt;/span&gt;" style="text;strokeColor=none;fillColor=none;html=1;align=center;verticalAlign=middle;whiteSpace=wrap;rounded=0;fontSize=16;" vertex="1" parent="1">
          <mxGeometry x="-29.5" y="52" width="60" height="30" as="geometry" />
        </mxCell>
        <mxCell id="vQx2TOWIWekJc0RoDal7-61" value="p1 =&amp;nbsp;&lt;span style=&quot;background-color: initial;&quot;&gt;p2&lt;/span&gt;" style="text;strokeColor=none;fillColor=none;html=1;align=center;verticalAlign=middle;whiteSpace=wrap;rounded=0;fontSize=16;" vertex="1" parent="1">
          <mxGeometry x="-68" y="122.5" width="60" height="30" as="geometry" />
        </mxCell>
      </root>
    </mxGraphModel>
  </diagram>
</mxfile>
